<svg xmlns="http://www.w3.org/2000/svg" width="45.563" height="53.847" viewBox="0 0 45.563 53.847">
  <path id="icon" d="M43.492-34.888v-46.6a1.036,1.036,0,0,1,.3-.732,1.036,1.036,0,0,1,.732-.3h0a1.035,1.035,0,0,1,.732.3,1.036,1.036,0,0,1,.3.732v47.634a1.036,1.036,0,0,1-1.036,1.036H5.178a1.035,1.035,0,0,1-1.035-1.036h0a1.035,1.035,0,0,1,.3-.732,1.035,1.035,0,0,1,.732-.3ZM40.385-86.664a1.036,1.036,0,0,1,1.035,1.036v47.634a1.036,1.036,0,0,1-1.035,1.036H1.036A1.036,1.036,0,0,1,0-37.995V-85.628a1.036,1.036,0,0,1,1.036-1.036ZM2.071-39.03H39.349V-84.593H2.071Zm3.107-7.424a1.035,1.035,0,0,1,.3-.732,1.035,1.035,0,0,1,.732-.3H24.68a1.035,1.035,0,0,1,1.035,1.035h0a1.035,1.035,0,0,1-1.035,1.036H6.213a1.035,1.035,0,0,1-1.035-1.036Zm0-4.371a1.035,1.035,0,0,1,.3-.732,1.035,1.035,0,0,1,.732-.3H35.207a1.035,1.035,0,0,1,1.035,1.035h0a1.035,1.035,0,0,1-1.035,1.035H6.213a1.035,1.035,0,0,1-1.035-1.035Zm0-4.371a1.035,1.035,0,0,1,.3-.732,1.035,1.035,0,0,1,.732-.3H33.136A1.035,1.035,0,0,1,34.172-55.2h0a1.035,1.035,0,0,1-.3.732,1.035,1.035,0,0,1-.732.3H6.213a1.035,1.035,0,0,1-.732-.3,1.035,1.035,0,0,1-.3-.732Zm0-4.371a1.035,1.035,0,0,1,.3-.732,1.035,1.035,0,0,1,.732-.3h24.68a1.035,1.035,0,0,1,1.035,1.036h0a1.035,1.035,0,0,1-1.035,1.035H6.213a1.035,1.035,0,0,1-.732-.3,1.035,1.035,0,0,1-.3-.732Zm0-12.426a8.284,8.284,0,0,0,5.114,7.654,8.284,8.284,0,0,0,9.028-1.8,8.284,8.284,0,0,0,1.8-9.028,8.285,8.285,0,0,0-7.654-5.114A8.294,8.294,0,0,0,5.178-71.994Zm19.675,5.868a1.035,1.035,0,0,1,.3-.732,1.036,1.036,0,0,1,.732-.3h7.249a1.035,1.035,0,0,1,1.035,1.035h0a1.035,1.035,0,0,1-1.035,1.035H25.888a1.035,1.035,0,0,1-1.036-1.035Zm-17.6-5.868a6.222,6.222,0,0,1,5.178-6.125v6.125a1.036,1.036,0,0,0,.3.732l4.329,4.329a6.208,6.208,0,0,1-6.448.461A6.208,6.208,0,0,1,7.249-71.994Zm11.274,3.6-3.6-3.6,3.6-3.6A6.191,6.191,0,0,1,18.523-68.4Zm6.33-1.871a1.036,1.036,0,0,1,.3-.732,1.036,1.036,0,0,1,.732-.3h9.32a1.035,1.035,0,0,1,1.035,1.035h0a1.035,1.035,0,0,1-1.035,1.036h-9.32a1.035,1.035,0,0,1-1.036-1.036Zm0-4.142a1.035,1.035,0,0,1,.3-.732,1.036,1.036,0,0,1,.732-.3h9.32a1.035,1.035,0,0,1,1.035,1.035h0a1.035,1.035,0,0,1-1.035,1.035h-9.32a1.035,1.035,0,0,1-1.036-1.035ZM14.5-78.12a6.183,6.183,0,0,1,2.561,1.064L14.5-74.494Zm10.355-.433a1.036,1.036,0,0,1,.3-.732,1.036,1.036,0,0,1,.732-.3h9.32a1.035,1.035,0,0,1,1.035,1.036h0a1.035,1.035,0,0,1-1.035,1.035h-9.32a1.035,1.035,0,0,1-1.036-1.035Z" transform="translate(0 86.664)" fill="#fff"/>
</svg>
