<svg xmlns="http://www.w3.org/2000/svg" width="22.787" height="22.787" viewBox="0 0 22.787 22.787">
	<path id="globe" d="M14.769,3.375A11.394,11.394,0,1,0,26.162,14.769,11.394,11.394,0,0,0,14.769,3.375Zm-1.18,21.089A9.767,9.767,0,0,1,7.336,8.433a10.821,10.821,0,0,1,.11,1.324c-.09,1.3-.218,2.119.544,3.219a5.311,5.311,0,0,1,.515,1.538c.141.485.707.739,1.1,1.038.787.6,1.539,1.3,2.373,1.835.55.35.894.525.733,1.2a4.245,4.245,0,0,1-.445,1.354,2.745,2.745,0,0,0,.457,1.227c.411.411.818.787,1.266,1.157C14.681,22.895,13.919,23.64,13.588,24.464Zm8.086-2.79a9.7,9.7,0,0,1-5.07,2.689,4.051,4.051,0,0,1,1.2-1.608,4.08,4.08,0,0,0,1.079-1.334,9.266,9.266,0,0,1,.744-1.272c.387-.6-.954-1.5-1.389-1.686a14.316,14.316,0,0,1-2.583-1.609c-.619-.436-1.876.228-2.576-.078A13.476,13.476,0,0,1,10.5,15c-.859-.647-.817-1.4-.817-2.355.673.025,1.63-.186,2.076.355.141.171.626.934.95.662.265-.221-.2-1.109-.285-1.318-.274-.642.625-.892,1.085-1.327.6-.568,1.888-1.458,1.786-1.865s-1.289-1.56-1.986-1.38c-.1.027-1.024.991-1.2,1.143q.007-.472.014-.944c0-.2-.371-.4-.353-.531.044-.324.946-.912,1.17-1.17-.157-.1-.693-.559-.856-.491-.393.164-.837.277-1.23.44a2.5,2.5,0,0,0-.036-.391,9.673,9.673,0,0,1,2.482-.72l.771.31.545.646.544.561.475.153.755-.712-.195-.508V5.105A9.659,9.659,0,0,1,20.33,6.738c-.221.02-.464.052-.737.087a2.455,2.455,0,0,0-.382-.144c.358.769.731,1.528,1.11,2.287.4.811,1.3,1.68,1.461,2.536.186,1.009.057,1.925.159,3.112a5.316,5.316,0,0,0,1.289,2.442,2.58,2.58,0,0,0,1.007.122A9.706,9.706,0,0,1,21.674,21.674Z" transform="translate(-3.375 -3.375)" fill="#4277e9"/>
</svg>
