<svg xmlns="http://www.w3.org/2000/svg" width="49.55" height="49.722" viewBox="0 0 49.55 49.722">
	<path id="icon" d="M42.5-71.273H39.451l3.814-3.814L46.3-75.1Zm-4.4-4.519,3.8-3.833.015,3.19L38.1-72.62Zm11.376-.643a.954.954,0,0,0-.879-.585l-4.775.025L43.8-81.931a.954.954,0,0,0-.958-.95.953.953,0,0,0-.673.282l-5.7,5.744a.954.954,0,0,0-.277.668v5.47l-1.139,1.142a.851.851,0,0,0-.112-.15A20.958,20.958,0,0,0,5.349-68.1,20.958,20.958,0,0,0,6.972-38.508a20.958,20.958,0,0,0,29.594-1.623A20.958,20.958,0,0,0,38.172-66.07a.954.954,0,0,0-1.328-.237.954.954,0,0,0-.237,1.328,19.084,19.084,0,0,1-4.789,26.56,19.084,19.084,0,0,1-26.56-4.789,19.084,19.084,0,0,1,4.789-26.56A19.084,19.084,0,0,1,33.67-68.3c.021.019.05.026.072.043l-4.079,4.078a13.23,13.23,0,0,0-8.728-3.276A13.351,13.351,0,0,0,7.584-54.109a13.351,13.351,0,0,0,13.35,13.352,13.351,13.351,0,0,0,13.352-13.35,13.353,13.353,0,0,0-1.491-6.133.954.954,0,0,0-1.286-.408.954.954,0,0,0-.408,1.286,11.3,11.3,0,0,1,1.279,5.254,11.472,11.472,0,0,1-11.443,11.5A11.472,11.472,0,0,1,9.435-54.05a11.472,11.472,0,0,1,11.443-11.5,11.473,11.473,0,0,1,7.438,2.714l-4.071,4.07a5.717,5.717,0,0,0-7.97,1.36,5.717,5.717,0,0,0,1.359,7.97,5.717,5.717,0,0,0,7.97-1.359,5.717,5.717,0,0,0,1.052-3.311.954.954,0,0,0-.954-.954.954.954,0,0,0-.954.954,3.814,3.814,0,0,1-3.814,3.814,3.814,3.814,0,0,1-3.814-3.814,3.814,3.814,0,0,1,3.814-3.814,3.77,3.77,0,0,1,1.926.54l-2.6,2.6a.954.954,0,0,0-.023,1.348.954.954,0,0,0,1.348.023l.024-.023L37.542-69.366H42.9a.953.953,0,0,0,.677-.286l5.7-5.746A.954.954,0,0,0,49.476-76.435Z" transform="translate(0 82.881)" fill="#fff"/>
</svg>
