<svg xmlns="http://www.w3.org/2000/svg" width="49.987" height="49.987" viewBox="0 0 49.987 49.987">
  <path id="icon" d="M10.039-49.838,1.432-41.23a4.877,4.877,0,0,0,0,6.9,4.877,4.877,0,0,0,6.9,0l8.609-8.608a2.929,2.929,0,0,0,.573-3.334l3.042-3.043a18.557,18.557,0,0,0,24-1.908,18.576,18.576,0,0,0,0-26.238,18.576,18.576,0,0,0-26.238,0,18.557,18.557,0,0,0-1.908,24l-3.043,3.042A2.929,2.929,0,0,0,10.039-49.838Zm5.524,5.524L6.954-35.706a2.925,2.925,0,0,1-4.142,0,2.925,2.925,0,0,1,0-4.142l8.608-8.609a.977.977,0,0,1,1.38,0l2.762,2.762A.977.977,0,0,1,15.563-44.314Zm4.142-31.761a16.62,16.62,0,0,1,23.476,0,16.62,16.62,0,0,1,0,23.476,16.574,16.574,0,0,1-23.476,0A16.574,16.574,0,0,1,19.705-76.075ZM18.325-51.218q.344.344.709.672l-2.78,2.781-1.381-1.381,2.781-2.78C17.871-51.685,18.095-51.448,18.325-51.218ZM29.385-78.836a14.578,14.578,0,0,1,4.264.02,14.585,14.585,0,0,1,5.857,2.245,14.509,14.509,0,0,1,5.856,7.681,14.57,14.57,0,0,1,.7,5.418,14.51,14.51,0,0,1-1.929,6.45A14.659,14.659,0,0,1,41.8-53.985a14.594,14.594,0,0,1-4.021,2.845,14.522,14.522,0,0,1-10.127.949A14.563,14.563,0,0,1,24.775-51.3c-.139-.071-.263-.136-.34-.179L24.4-51.5a14.7,14.7,0,0,1-5.769-5.758q-.022-.032-.041-.067a14.3,14.3,0,0,1-1.736-5.793q-.012-.136-.021-.273h0c-.015-.231-.024-.46-.027-.585q0-.045,0-.088a14.719,14.719,0,0,1,2.11-7.853q.013-.025.028-.049a14.377,14.377,0,0,1,4.944-4.912,14.618,14.618,0,0,1,5.458-1.949l.03,0Zm3.807,1.926A12.738,12.738,0,0,0,22.7-73.543a12.865,12.865,0,0,0-2.058,2.534l-.027.044-.021.033A12.724,12.724,0,0,0,18.731-64.2a.976.976,0,0,1,.022.186,12.739,12.739,0,0,0,9.406,11.941,12.866,12.866,0,0,0,1.52.311,12.87,12.87,0,0,0,8.619-1.9,12.774,12.774,0,0,0,4.466-4.922,12.765,12.765,0,0,0,.619-10.057,12.738,12.738,0,0,0-8.342-7.869,12.931,12.931,0,0,0-1.831-.4h0Z" transform="translate(0 82.881)" fill="#fff"/>
</svg>
