<svg xmlns="http://www.w3.org/2000/svg" width="57.034" height="47.556" viewBox="0 0 57.034 47.556">
	<path id="icon" d="M56.1-30.234H.929a.947.947,0,0,1-.609-.222.984.984,0,0,1,0-1.452.948.948,0,0,1,.609-.222H56.1l.324.057c.248.143.346.157.5.417a.984.984,0,0,1-.212,1.2A.947.947,0,0,1,56.1-30.234ZM11.883-36.9a1.1,1.1,0,0,0,.6.041,1.107,1.107,0,0,0,.819-.713,1.108,1.108,0,0,0-.672-1.415,7.124,7.124,0,0,1-4.62-5.3,1.108,1.108,0,0,0-1.31-.859,1.108,1.108,0,0,0-.859,1.31A9.325,9.325,0,0,0,11.883-36.9ZM51.472-49.256a1.108,1.108,0,0,0-1.108-1.108,1.108,1.108,0,0,0-1.108,1.108A3.77,3.77,0,0,1,45.49-45.49a1.108,1.108,0,0,0-1.108,1.108,1.108,1.108,0,0,0,1.108,1.108A5.988,5.988,0,0,0,51.472-49.256ZM4.8-51.795a29.982,29.982,0,0,0,13.782,3.042,44.215,44.215,0,0,0,10.279-1.274c.222-.053.441-.107.66-.162a1.109,1.109,0,0,0,.51-.287l4.1-4.06.817,1.627a1.108,1.108,0,0,0,1.4.531A31.7,31.7,0,0,0,45.438-57.7a1.106,1.106,0,0,0,.378-.822l.025-2.359.52.52a1.107,1.107,0,0,0,.868.321,1.108,1.108,0,0,0,.809-.449c2.36-3.217,2.726-6.605,1.1-9.374q.789-.606,1.563-1.233l5.838-4.73A1.107,1.107,0,0,0,56.7-77.38a1.107,1.107,0,0,0-1.558-.164L49.3-72.814q-.763.618-1.538,1.214a11.026,11.026,0,0,0-7.141-3.572c-3.328-.262-7.116.98-11.583,3.8-.756.477-1.173.73-1.931,1.19l-.557.338a1.108,1.108,0,0,0-.531.9,1.107,1.107,0,0,0,.457.942l.5.36-2.771-.462a1.111,1.111,0,0,0-.751.142C16.966-64.078,8.909-59.455,4.684-57.045a2.98,2.98,0,0,0-1.5,2.655A2.99,2.99,0,0,0,4.8-51.795Zm42.161-11.1-1.417-1.417a1.108,1.108,0,0,0-1.2-.242,1.108,1.108,0,0,0-.689,1.014l-.047,4.491a29.121,29.121,0,0,1-7.138,4.22l-1.038-2.068a1.108,1.108,0,0,0-.81-.6,1.106,1.106,0,0,0-.958.305L28.69-52.265l-.342.084a42.07,42.07,0,0,1-9.775,1.215,27.739,27.739,0,0,1-12.757-2.8h0c.028,0,.056,0,.085,0l.065,0a78.181,78.181,0,0,0,23.728-5.154,78.174,78.174,0,0,0,17.655-9.606A5.67,5.67,0,0,1,46.962-62.89ZM24.245-65.853l7.023,1.17a1.107,1.107,0,0,0,1.2-.665,1.108,1.108,0,0,0-.373-1.324L29.13-68.821c.336-.206.66-.407,1.094-.681,4.049-2.552,7.394-3.686,10.227-3.462a8.661,8.661,0,0,1,5.519,2.7,75.544,75.544,0,0,1-38.5,14.172C11.851-58.592,18.592-62.476,24.245-65.853Z" transform="translate(0 77.79)" fill="#fff"/>
</svg>
