<svg xmlns="http://www.w3.org/2000/svg" width="509.004" height="509.004" viewBox="0 0 509.004 509.004">
	<g id="elements" transform="translate(-1500 -4078.935)">
		<path id="background_circle" data-name="background circle" d="M254.5-129.6C394.965-129.6,509-15.561,509,124.9S394.965,379.4,254.5,379.4,0,265.366,0,124.9,114.039-129.6,254.5-129.6Z" transform="translate(1500 4208.535)" fill="rgba(77,86,106,0.1)" fill-rule="evenodd"/>
		<path id="outer_stroke" data-name="outer stroke" d="M164.569-98.88A133.849,133.849,0,1,1,30.72,34.969,133.912,133.912,0,0,1,164.569-98.88Z" transform="translate(1589.933 4298.468)" fill="rgba(0,0,0,0)" stroke="#4a7def" stroke-linecap="round" stroke-linejoin="round" stroke-width="3"/>
		<path id="dots" d="M597.714,320.3a4.713,4.713,0,1,1,4.713,4.713A4.715,4.715,0,0,1,597.714,320.3Zm-75.928,0a4.713,4.713,0,1,1,4.713,4.713A4.715,4.715,0,0,1,521.786,320.3Zm-75.929,0a4.713,4.713,0,1,1,4.713,4.713A4.715,4.715,0,0,1,445.857,320.3Zm-75.928,0a4.713,4.713,0,1,1,4.712,4.713A4.715,4.715,0,0,1,369.929,320.3Zm303.713-75.929a4.713,4.713,0,1,1,4.713,4.713A4.717,4.717,0,0,1,673.642,244.367Zm-75.928,0a4.713,4.713,0,1,1,4.713,4.713A4.716,4.716,0,0,1,597.714,244.367Zm-227.785,0a4.713,4.713,0,1,1,4.712,4.713A4.716,4.716,0,0,1,369.929,244.367Zm-75.928,0a4.713,4.713,0,1,1,4.712,4.713A4.715,4.715,0,0,1,294,244.367Zm379.642-75.929a4.713,4.713,0,1,1,4.713,4.712A4.717,4.717,0,0,1,673.642,168.438Zm-379.642,0a4.713,4.713,0,1,1,4.712,4.712A4.715,4.715,0,0,1,294,168.438Zm379.642-75.93a4.713,4.713,0,1,1,4.713,4.712A4.716,4.716,0,0,1,673.642,92.507ZM294,92.507a4.713,4.713,0,1,1,4.712,4.712A4.715,4.715,0,0,1,294,92.507Zm379.642-75.93a4.713,4.713,0,1,1,4.713,4.713A4.717,4.717,0,0,1,673.642,16.577Zm-75.928,0a4.713,4.713,0,1,1,4.713,4.713A4.716,4.716,0,0,1,597.714,16.577Zm-227.785,0a4.713,4.713,0,1,1,4.712,4.713A4.716,4.716,0,0,1,369.929,16.577Zm-75.928,0a4.713,4.713,0,1,1,4.712,4.713A4.715,4.715,0,0,1,294,16.577ZM597.714-59.352a4.716,4.716,0,0,1,4.713-4.712,4.716,4.716,0,0,1,4.713,4.712,4.717,4.717,0,0,1-4.713,4.713A4.717,4.717,0,0,1,597.714-59.352Zm-75.928,0a4.716,4.716,0,0,1,4.713-4.712,4.716,4.716,0,0,1,4.713,4.712,4.717,4.717,0,0,1-4.713,4.713A4.717,4.717,0,0,1,521.786-59.352Zm-75.929,0a4.716,4.716,0,0,1,4.713-4.712,4.716,4.716,0,0,1,4.712,4.712,4.716,4.716,0,0,1-4.712,4.713A4.717,4.717,0,0,1,445.857-59.352Zm-75.928,0a4.716,4.716,0,0,1,4.712-4.712,4.716,4.716,0,0,1,4.713,4.712,4.716,4.716,0,0,1-4.713,4.713A4.716,4.716,0,0,1,369.929-59.352Z" transform="translate(1265.967 4202.965)" fill="rgba(74,125,239,0.4)"/>
		<g id="logo">
			<path id="frame" d="M136.465-89.28A96.191,96.191,0,0,1,232.611,6.865a96.145,96.145,0,1,1-192.29,0A96.191,96.191,0,0,1,136.465-89.28Z" transform="translate(1618.037 4326.572)" fill="#4a7def" fill-rule="evenodd"/>
			<path id="scylla_logo" data-name="scylla logo" d="M70.365-53.607,49.679-28.784C94.41,44.593,169.728-7.536,114.5-41.2,139.42-10.96,78.563-2.007,70.365-53.607ZM147.77-13.461l20.686-24.823C123.725-111.661,48.407-59.532,103.64-25.873,78.715-56.108,139.571-65.06,147.77-13.461Z" transform="translate(1645.435 4366.971)" fill="rgba(0,0,0,0)" stroke="#fff" stroke-linecap="round" stroke-linejoin="round" stroke-width="3"/>
		</g>
		<path id="rectangle" d="M252.922-13.625a23.884,23.884,0,0,0-23.883-23.884H119.391A23.884,23.884,0,0,0,95.507-13.625V22.5a23.884,23.884,0,0,0,23.884,23.883H229.039A23.884,23.884,0,0,0,252.922,22.5Z" transform="translate(1740.078 4502.651)" fill="rgba(0,0,0,0)" stroke="#f75c56" stroke-linecap="round" stroke-linejoin="round" stroke-width="3"/>
		<path id="square" d="M97.327-3.385A23.883,23.883,0,0,0,73.444-27.268H36.377A23.883,23.883,0,0,0,12.493-3.385V33.683A23.884,23.884,0,0,0,36.377,57.566H73.444A23.884,23.884,0,0,0,97.327,33.683Z" transform="translate(1536.574 4508.113)" fill="rgba(0,0,0,0)" stroke="#ffd533" stroke-linecap="round" stroke-linejoin="round" stroke-width="3"/>
		<path id="shape" d="M6.8-129.051A70.693,70.693,0,0,1,77.5-58.356V16.108h0A70.694,70.694,0,0,1,6.8-54.586Z" transform="translate(1519.92 4210.143)" fill="rgba(0,0,0,0)" stroke="#2980b9" stroke-linecap="round" stroke-linejoin="round" stroke-width="3"/>
		<path id="circle" d="M132.145-122.175A42.246,42.246,0,0,1,174.373-79.95a42.249,42.249,0,0,1-42.229,42.225A42.246,42.246,0,0,1,89.921-79.95,42.244,42.244,0,0,1,132.145-122.175Z" transform="translate(1745.968 4203.78)" fill="rgba(0,0,0,0)" stroke="#4d566a" stroke-linecap="round" stroke-linejoin="round" stroke-width="3"/>
	</g>
</svg>
