<svg xmlns="http://www.w3.org/2000/svg" width="257" height="257" viewBox="0 0 257 257">
	<path id="main_icon_1" data-name="main icon 1" d="M29.016-372a4.147,4.147,0,0,1,4.145,4.145v8.29h78.758v-8.29A4.147,4.147,0,0,1,116.065-372h24.871a4.147,4.147,0,0,1,4.145,4.145v8.29h78.758v-8.29A4.147,4.147,0,0,1,227.984-372h24.871A4.147,4.147,0,0,1,257-367.855v24.871a4.147,4.147,0,0,1-4.145,4.145h-8.29v78.758h8.29A4.147,4.147,0,0,1,257-255.935v24.871a4.147,4.147,0,0,1-4.145,4.145h-8.29v78.758h8.29A4.147,4.147,0,0,1,257-144.016v24.871A4.147,4.147,0,0,1,252.855-115H227.984a4.147,4.147,0,0,1-4.145-4.145v-8.29H145.081v8.29A4.147,4.147,0,0,1,140.935-115H116.065a4.147,4.147,0,0,1-4.145-4.145v-8.29H33.161v8.29A4.147,4.147,0,0,1,29.016-115H4.145A4.147,4.147,0,0,1,0-119.145v-24.871a4.147,4.147,0,0,1,4.145-4.145h8.29v-78.758H4.145A4.147,4.147,0,0,1,0-231.065v-24.871a4.147,4.147,0,0,1,4.145-4.145h8.29v-78.758H4.145A4.147,4.147,0,0,1,0-342.984v-24.871A4.147,4.147,0,0,1,4.145-372ZM8.29-123.29H24.871v-16.581H8.29Zm111.919,0H136.79v-16.581H120.21Zm111.919,0H248.71v-16.581H232.129ZM111.919-351.274H33.161v8.29a4.147,4.147,0,0,1-4.145,4.145h-8.29v78.758h8.29a4.147,4.147,0,0,1,4.145,4.145v24.871a4.147,4.147,0,0,1-4.145,4.145h-8.29v78.758h8.29a4.147,4.147,0,0,1,4.145,4.145v8.29h78.758v-8.29a4.147,4.147,0,0,1,4.145-4.145h24.871a4.147,4.147,0,0,1,4.145,4.145v8.29h78.758v-8.29a4.147,4.147,0,0,1,4.145-4.145h8.29v-78.758h-8.29a4.147,4.147,0,0,1-4.145-4.145v-24.871a4.147,4.147,0,0,1,4.145-4.145h8.29v-78.758h-8.29a4.147,4.147,0,0,1-4.145-4.145v-8.29H145.081v8.29a4.147,4.147,0,0,1-4.145,4.145H116.065a4.147,4.147,0,0,1-4.145-4.145Zm8.29,169.952a4.147,4.147,0,0,1,4.145,4.145,4.147,4.147,0,0,1-4.145,4.145h-4.145a4.147,4.147,0,0,1-4.145-4.145,4.147,4.147,0,0,1,4.145-4.145Zm-16.581,8.29H62.177a4.122,4.122,0,0,1-1.576-.332,3.965,3.965,0,0,1-2.238-2.238,4.121,4.121,0,0,1-.332-1.576v-41.452a4.147,4.147,0,0,1,4.145-4.145,4.147,4.147,0,0,1,4.145,4.145v31.461L184.832-305.677H153.371a4.147,4.147,0,0,1-4.145-4.145,4.147,4.147,0,0,1,4.145-4.145h41.452a4.122,4.122,0,0,1,1.576.332,3.965,3.965,0,0,1,2.238,2.238,4.121,4.121,0,0,1,.332,1.576v41.452a4.147,4.147,0,0,1-4.145,4.145,4.147,4.147,0,0,1-4.145-4.145v-31.461L72.168-181.323h31.461a4.147,4.147,0,0,1,4.145,4.145A4.147,4.147,0,0,1,103.629-173.032ZM8.29-235.21H24.871V-251.79H8.29Zm223.839,0H248.71V-251.79H232.129Zm0-111.919H248.71V-363.71H232.129Zm-111.919,0H136.79V-363.71H120.21Zm-111.919,0H24.871V-363.71H8.29Z" transform="translate(0 372)" fill="#fff"/>
</svg>
