<svg xmlns="http://www.w3.org/2000/svg" width="168.591" height="199.062" viewBox="0 0 168.591 199.062">
  <path id="Path_29" data-name="Path 29" d="M159.973,103.78v-171.4a3.81,3.81,0,0,1,1.115-2.693,3.81,3.81,0,0,1,2.693-1.116h0a3.809,3.809,0,0,1,2.693,1.116,3.809,3.809,0,0,1,1.116,2.693V107.589a3.81,3.81,0,0,1-3.809,3.809H19.044a3.809,3.809,0,0,1-3.809-3.809h0a3.809,3.809,0,0,1,3.809-3.809ZM148.546-86.664a3.81,3.81,0,0,1,3.809,3.809V92.353a3.81,3.81,0,0,1-3.809,3.809H3.809A3.81,3.81,0,0,1,0,92.353V-82.855a3.81,3.81,0,0,1,3.809-3.809ZM7.618,88.545h137.12V-79.046H7.618ZM19.044,61.239a3.809,3.809,0,0,1,3.809-3.809H90.778a3.809,3.809,0,0,1,3.809,3.809h0a3.809,3.809,0,0,1-3.809,3.809H22.853a3.809,3.809,0,0,1-3.809-3.809Zm0-16.079a3.809,3.809,0,0,1,3.809-3.809H129.5a3.809,3.809,0,0,1,3.809,3.809h0a3.809,3.809,0,0,1-3.809,3.809H22.853a3.809,3.809,0,0,1-3.809-3.809Zm0-16.079a3.809,3.809,0,0,1,3.809-3.809h99.031a3.809,3.809,0,0,1,3.809,3.809h0a3.809,3.809,0,0,1-3.809,3.809H22.853a3.809,3.809,0,0,1-3.809-3.809Zm0-16.079a3.809,3.809,0,0,1,3.809-3.809h90.779A3.809,3.809,0,0,1,117.44,13h0a3.809,3.809,0,0,1-3.809,3.809H22.853A3.809,3.809,0,0,1,19.044,13Zm0-45.706A30.473,30.473,0,0,0,37.856-4.552a30.471,30.471,0,0,0,33.206-6.607,30.472,30.472,0,0,0,6.607-33.206A30.473,30.473,0,0,0,49.515-63.176,30.507,30.507,0,0,0,19.044-32.7ZM91.413-11.121a3.809,3.809,0,0,1,1.116-2.693,3.809,3.809,0,0,1,2.693-1.116h26.662a3.809,3.809,0,0,1,3.809,3.809h0a3.809,3.809,0,0,1-3.809,3.809H95.222a3.809,3.809,0,0,1-3.809-3.809ZM26.662-32.7A22.886,22.886,0,0,1,45.707-55.236V-32.7a3.81,3.81,0,0,0,1.116,2.693L62.745-14.089a22.834,22.834,0,0,1-23.719,1.7A22.835,22.835,0,0,1,26.662-32.7ZM68.131-19.475,54.9-32.7l13.229-13.23A22.773,22.773,0,0,1,68.131-19.475Zm23.282-6.881a3.81,3.81,0,0,1,1.116-2.693,3.81,3.81,0,0,1,2.693-1.116H129.5a3.809,3.809,0,0,1,3.809,3.809h0a3.809,3.809,0,0,1-3.809,3.809H95.222a3.809,3.809,0,0,1-3.809-3.809Zm0-15.236a3.809,3.809,0,0,1,1.116-2.693A3.809,3.809,0,0,1,95.222-45.4H129.5a3.809,3.809,0,0,1,3.809,3.809h0a3.809,3.809,0,0,1-3.809,3.809H95.222a3.809,3.809,0,0,1-3.809-3.809ZM53.324-55.236a22.741,22.741,0,0,1,9.421,3.913L53.324-41.9Zm38.089-1.592a3.81,3.81,0,0,1,1.116-2.693,3.81,3.81,0,0,1,2.693-1.116H129.5a3.809,3.809,0,0,1,3.809,3.809h0a3.809,3.809,0,0,1-3.809,3.809H95.222a3.809,3.809,0,0,1-3.809-3.809Z" transform="translate(0.5 87.164)" fill="none" stroke="#4d566a" stroke-width="1" opacity="0.4"/>
</svg>
