<svg xmlns="http://www.w3.org/2000/svg" width="207.739" height="208.398" viewBox="0 0 207.739 208.398">
  <path id="Path_25" data-name="Path 25" d="M177.282-34.462H164.553l15.91-15.911,12.664-.064Zm-18.36-18.85L174.768-69.3l.064,13.305-15.91,15.91Zm47.449-2.681a3.977,3.977,0,0,0-3.667-2.438l-19.916.1L182.7-78.92a3.978,3.978,0,0,0-3.994-3.961A3.975,3.975,0,0,0,175.9-81.7L152.119-57.747a3.978,3.978,0,0,0-1.153,2.784v22.815l-4.749,4.765a3.55,3.55,0,0,0-.465-.624,87.415,87.415,0,1,0,13.468,15.246,3.98,3.98,0,0,0-5.541-.99,3.98,3.98,0,0,0-.99,5.541,79.6,79.6,0,1,1-12.247-13.866c.087.08.207.107.3.179L123.731-4.89A55.184,55.184,0,0,0,87.324-18.553a55.686,55.686,0,1,0,49.462,30.11,3.979,3.979,0,1,0-7.064,3.663,47.121,47.121,0,0,1,5.334,21.913A47.85,47.85,0,1,1,118.111.723L101.131,17.7A23.846,23.846,0,1,0,111.19,37.134a3.978,3.978,0,1,0-7.955,0,15.91,15.91,0,1,1-15.91-15.91,15.724,15.724,0,0,1,8.035,2.251L84.512,34.321a3.978,3.978,0,1,0,5.526,5.722c.033-.032.066-.065.1-.1L156.59-26.508h22.35a3.976,3.976,0,0,0,2.824-1.193L205.526-51.67A3.977,3.977,0,0,0,206.37-55.993Z" transform="translate(0.504 83.381)" fill="none" stroke="#4d566a" stroke-width="1" opacity="0.4"/>
</svg>
