<svg xmlns="http://www.w3.org/2000/svg" width="572.276" height="572.276" viewBox="0 0 572.276 572.276">
	<path id="Background_icon" data-name="Background icon" d="M64.273-372a9.185,9.185,0,0,1,9.182,9.182v18.364H247.911v-18.364A9.185,9.185,0,0,1,257.092-372h55.091a9.185,9.185,0,0,1,9.182,9.182v18.364H495.821v-18.364A9.185,9.185,0,0,1,505-372h55.091a9.185,9.185,0,0,1,9.182,9.182v55.091a9.185,9.185,0,0,1-9.182,9.182H541.73v174.456h18.364a9.185,9.185,0,0,1,9.182,9.182v55.091a9.185,9.185,0,0,1-9.182,9.182H541.73V123.821h18.364A9.185,9.185,0,0,1,569.276,133v55.091a9.185,9.185,0,0,1-9.182,9.182H505a9.185,9.185,0,0,1-9.182-9.182V169.731H321.366v18.364a9.185,9.185,0,0,1-9.182,9.182H257.092a9.185,9.185,0,0,1-9.182-9.182V169.731H73.455v18.364a9.185,9.185,0,0,1-9.182,9.182H9.182A9.185,9.185,0,0,1,0,188.094V133a9.185,9.185,0,0,1,9.182-9.182H27.546V-50.634H9.182A9.185,9.185,0,0,1,0-59.816v-55.091a9.185,9.185,0,0,1,9.182-9.182H27.546V-298.545H9.182A9.185,9.185,0,0,1,0-307.727v-55.091A9.185,9.185,0,0,1,9.182-372ZM18.364,178.912H55.091V142.185H18.364Zm247.911,0H303V142.185H266.274Zm247.911,0h36.727V142.185H514.185Zm-266.274-505H73.455v18.364a9.185,9.185,0,0,1-9.182,9.182H45.909v174.456H64.273a9.185,9.185,0,0,1,9.182,9.182v55.091a9.185,9.185,0,0,1-9.182,9.182H45.909V123.821H64.273A9.185,9.185,0,0,1,73.455,133v18.364H247.911V133a9.185,9.185,0,0,1,9.182-9.182h55.091A9.185,9.185,0,0,1,321.366,133v18.364H495.821V133A9.185,9.185,0,0,1,505,123.821h18.364V-50.634H505a9.185,9.185,0,0,1-9.182-9.182v-55.091A9.185,9.185,0,0,1,505-124.089h18.364V-298.545H505a9.185,9.185,0,0,1-9.182-9.182v-18.364H321.366v18.364a9.185,9.185,0,0,1-9.182,9.182H257.092a9.185,9.185,0,0,1-9.182-9.182ZM266.274,50.366a9.182,9.182,0,1,1,0,18.364h-9.182a9.182,9.182,0,1,1,0-18.364ZM229.547,68.73H137.728A9.13,9.13,0,0,1,134.237,68a8.783,8.783,0,0,1-4.957-4.957,9.129,9.129,0,0,1-.735-3.491V-32.271a9.185,9.185,0,0,1,9.182-9.182,9.185,9.185,0,0,1,9.182,9.182V37.418L409.418-225.09H339.729a9.185,9.185,0,0,1-9.182-9.182,9.185,9.185,0,0,1,9.182-9.182h91.819a9.13,9.13,0,0,1,3.491.735A8.784,8.784,0,0,1,440-237.763a9.129,9.129,0,0,1,.735,3.491v91.819a9.185,9.185,0,0,1-9.182,9.182,9.185,9.185,0,0,1-9.182-9.182v-69.689L159.858,50.366h69.689a9.182,9.182,0,1,1,0,18.364ZM18.364-69H55.091v-36.727H18.364Zm495.821,0h36.727v-36.727H514.185Zm0-247.911h36.727v-36.727H514.185Zm-247.911,0H303v-36.727H266.274Zm-247.911,0H55.091v-36.727H18.364Z" transform="translate(1.5 373.5)" fill="none" stroke="#f7f7f7" stroke-width="3" opacity="0.358"/>
</svg>
