<svg xmlns="http://www.w3.org/2000/svg" width="252.337" height="252.337" viewBox="0 0 252.337 252.337">
  <path id="Path_23" data-name="Path 23" d="M50.477,83.26,7.2,126.543a24.545,24.545,0,1,0,34.711,34.713L85.2,117.977a14.727,14.727,0,0,0,2.881-16.765l15.3-15.3A93.289,93.289,0,0,0,224.062-55.606a93.4,93.4,0,0,0-131.925,0A93.306,93.306,0,0,0,82.544,65.083l-15.3,15.3A14.729,14.729,0,0,0,50.477,83.26Zm27.774,27.774-43.285,43.28a14.726,14.726,0,0,1-20.825-20.827L57.421,90.2a4.914,4.914,0,0,1,6.941,0l13.889,13.89A4.913,4.913,0,0,1,78.251,111.034ZM99.08-48.662a83.568,83.568,0,0,1,118.038,0,83.568,83.568,0,0,1,0,118.038,83.334,83.334,0,0,1-118.038,0A83.337,83.337,0,0,1,99.08-48.662ZM92.136,76.319Q93.868,78.05,95.7,79.7L81.723,93.678l-6.945-6.945L88.759,72.755C89.856,73.972,90.982,75.165,92.136,76.319ZM147.751-62.545a73.732,73.732,0,0,1,50.888,11.388,72.95,72.95,0,0,1,29.444,38.62,73.26,73.26,0,0,1,3.542,27.244,72.958,72.958,0,0,1-9.7,32.428,73.705,73.705,0,0,1-11.745,15.273,73.378,73.378,0,0,1-20.217,14.3,73.015,73.015,0,0,1-50.918,4.771,73.221,73.221,0,0,1-14.476-5.578c-.7-.357-1.323-.686-1.709-.9-.068-.037-.134-.076-.2-.116A73.9,73.9,0,0,1,93.651,45.938q-.109-.163-.206-.338a71.92,71.92,0,0,1-8.729-29.128q-.059-.684-.105-1.372h0c-.076-1.164-.123-2.315-.136-2.939q0-.225.011-.445A74.007,74.007,0,0,1,95.1-27.767q.065-.125.139-.248a72.287,72.287,0,0,1,24.861-24.7,73.5,73.5,0,0,1,27.443-9.8l.149-.022Zm19.142,9.684A64.048,64.048,0,0,0,114.14-35.929a64.686,64.686,0,0,0-10.35,12.742l-.134.222c-.034.057-.069.112-.105.167a63.978,63.978,0,0,0-9.369,33.821,4.906,4.906,0,0,1,.11.937c.584,28.866,20.962,52.989,47.293,60.04a64.688,64.688,0,0,0,7.643,1.564,64.71,64.71,0,0,0,43.337-9.542,64.228,64.228,0,0,0,22.453-24.747,64.184,64.184,0,0,0,3.111-50.567,64.049,64.049,0,0,0-41.942-39.564,65.019,65.019,0,0,0-9.206-1.991l-.015,0Z" transform="translate(0.5 83.381)" fill="none" stroke="#4d566a" stroke-width="1" opacity="0.4"/>
</svg>
