<svg xmlns="http://www.w3.org/2000/svg" width="219.544" height="196.753" viewBox="0 0 219.544 196.753">
  <path id="Path_28" data-name="Path 28" d="M214.788,117.959H3.557a3.479,3.479,0,0,1-2.332-.912,4.258,4.258,0,0,1,0-5.976,3.48,3.48,0,0,1,2.332-.912H214.788l1.241.235c.95.589,1.327.645,1.9,1.715a4.267,4.267,0,0,1-.81,4.938A3.479,3.479,0,0,1,214.788,117.959ZM45.5,90.534a3.942,3.942,0,0,0,2.282.169,4.346,4.346,0,0,0,3.136-2.936,4.657,4.657,0,0,0-2.574-5.825C39.235,78.459,32.621,70.3,30.653,60.125a4.258,4.258,0,0,0-5.016-3.536,4.565,4.565,0,0,0-3.289,5.392C24.923,75.3,33.58,85.973,45.5,90.534ZM197.082,39.661a4.252,4.252,0,1,0-8.482,0c0,8.549-6.47,15.5-14.42,15.5a4.571,4.571,0,0,0,0,9.119C186.809,64.281,197.082,53.237,197.082,39.661ZM18.382,29.213c9.786,5.423,27.44,12.52,52.772,12.52a158.1,158.1,0,0,0,39.357-5.243c.852-.217,1.69-.442,2.528-.668a4.177,4.177,0,0,0,1.953-1.181L130.7,17.932l3.128,6.7a4.12,4.12,0,0,0,5.371,2.185c14.115-6.1,25.817-13.461,34.78-21.889a4.7,4.7,0,0,0,1.448-3.384l.1-9.712,1.99,2.139a4.077,4.077,0,0,0,3.322,1.321,4.18,4.18,0,0,0,3.1-1.849c9.038-13.243,10.438-27.189,4.206-38.587q3.02-2.5,5.984-5.074l22.353-19.468A4.793,4.793,0,0,0,217.1-76.1a4.041,4.041,0,0,0-5.964-.673L188.785-57.305q-2.92,2.543-5.89,5c-8.276-9.034-17.232-13.849-27.343-14.7C142.81-68.093,128.307-62.98,111.2-51.389c-2.9,1.965-4.493,3.006-7.393,4.9L101.677-45.1a4.63,4.63,0,0,0-2.035,3.714,4.685,4.685,0,0,0,1.751,3.877l1.907,1.483-10.608-1.9a4.005,4.005,0,0,0-2.876.586C64.961-21.348,34.11-2.32,17.934,7.6a12.477,12.477,0,0,0-5.762,10.927A12.425,12.425,0,0,0,18.382,29.213ZM179.813-16.456l-5.425-5.833a4.028,4.028,0,0,0-4.6-1,4.569,4.569,0,0,0-2.639,4.173L166.967-.628a110.152,110.152,0,0,1-27.329,17.371l-3.976-8.513a4.282,4.282,0,0,0-3.1-2.454,4.051,4.051,0,0,0-3.67,1.257L109.853,27.277c-.434.116-.869.232-1.31.344a150.43,150.43,0,0,1-37.428,5c-23.544,0-39.831-6.517-48.847-11.514l-.01-.006c.108.009.215.016.325.016.083,0,.165,0,.25-.007A281.631,281.631,0,0,0,113.687-.1a293.507,293.507,0,0,0,67.6-39.541C184.681-32.754,184.187-24.79,179.813-16.456Zm-86.98-12.2,26.889,4.814a4.194,4.194,0,0,0,4.611-2.739,4.768,4.768,0,0,0-1.426-5.452l-11.368-8.843c1.287-.848,2.526-1.676,4.188-2.8,15.5-10.506,28.312-15.172,39.16-14.25,7.77.659,14.536,4.216,21.133,11.13C132.693-13.065,82.156,6.965,28.619,11.542,45.376,1.235,71.186-14.753,92.833-28.653Z" transform="translate(0.5 78.294)" fill="none" stroke="#4d566a" stroke-width="1" opacity="0.4"/>
</svg>
